<?xml version="1.0" encoding="UTF-8"?>
<!DOCTYPE svg PUBLIC "-//W3C//DTD SVG 1.1//EN" "http://www.w3.org/Graphics/SVG/1.1/DTD/svg11.dtd">
<svg xmlns="http://www.w3.org/2000/svg" version="1.1" width="100" height="100" viewBox="5 5 500 500" style="" xmlns:xlink="http://www.w3.org/1999/xlink">
<g><path style="opacity:1" fill="#1d1930" d="M 156.5,219.5 C 156.5,218.833 156.167,218.5 155.5,218.5C 150.665,215.481 148.831,211.147 150,205.5C 150.708,204.619 151.542,203.953 152.5,203.5C 153.527,210.355 157.527,214.022 164.5,214.5C 166.666,216.837 168.666,219.337 170.5,222C 173.072,224.287 176.072,225.453 179.5,225.5C 181.214,228.567 183.214,231.567 185.5,234.5C 188.486,239.199 192.486,240.532 197.5,238.5C 200.542,238.267 203.208,237.267 205.5,235.5C 207.954,234.773 210.287,233.773 212.5,232.5C 214.368,231.737 216.035,230.737 217.5,229.5C 219.574,228.486 221.574,227.486 223.5,226.5C 225.5,225.833 227.5,225.167 229.5,224.5C 228.694,225.728 227.694,226.728 226.5,227.5C 224.77,228.026 223.436,229.026 222.5,230.5C 220.77,231.026 219.436,232.026 218.5,233.5C 216.844,235.46 215.177,237.46 213.5,239.5C 209.789,244.155 208.622,249.489 210,255.5C 212.944,259.114 216.777,260.447 221.5,259.5C 223.031,261.68 225.198,262.68 228,262.5C 232.022,262.108 235.855,261.442 239.5,260.5C 241.912,260.306 242.912,258.973 242.5,256.5C 243.451,255.081 243.784,253.415 243.5,251.5C 244.345,241.546 242.345,232.213 237.5,223.5C 236.06,222.048 234.394,221.048 232.5,220.5C 230.704,218.1 228.37,216.433 225.5,215.5C 224.341,213.75 222.674,212.75 220.5,212.5C 219.71,211.599 218.71,210.932 217.5,210.5C 214.63,208.206 211.297,206.872 207.5,206.5C 204.854,204.747 201.854,203.747 198.5,203.5C 197.791,202.596 196.791,202.263 195.5,202.5C 195.5,202.167 195.5,201.833 195.5,201.5C 195.5,200.833 195.167,200.5 194.5,200.5C 184.718,169.349 193.385,144.516 220.5,126C 235.915,117.416 252.082,115.583 269,120.5C 281.65,114.532 294.483,114.032 307.5,119C 310.524,120.513 313.191,122.513 315.5,125C 341.854,132.223 351.021,148.723 343,174.5C 341.478,176.022 339.978,177.522 338.5,179C 342.424,192.802 340.757,205.802 333.5,218C 335.386,225.94 339.219,232.773 345,238.5C 345.755,241.497 344.922,243.997 342.5,246C 338.597,246.775 335.597,248.775 333.5,252C 338.009,256.815 337.009,260.148 330.5,262C 331.591,264.064 331.758,266.231 331,268.5C 328.373,269.314 326.04,270.647 324,272.5C 325.762,282.987 321.428,288.32 311,288.5C 305.333,287.5 299.667,286.5 294,285.5C 291.7,285.494 289.534,285.994 287.5,287C 283.441,292.836 279.941,299.002 277,305.5C 273.667,312.5 273.667,319.5 277,326.5C 282.601,337.092 288.601,347.426 295,357.5C 298.855,365.045 302.022,372.879 304.5,381C 291.283,367.187 275.616,356.521 257.5,349C 232.336,340.204 208.003,342.037 184.5,354.5C 186.827,338.738 192.994,324.405 203,311.5C 214.804,300.401 224.304,287.568 231.5,273C 214.509,272.008 204.342,263.175 201,246.5C 195.786,249.188 190.619,249.021 185.5,246C 182.459,242.088 179.792,237.921 177.5,233.5C 174.749,230.578 171.415,228.578 167.5,227.5C 164.94,223.268 161.273,220.601 156.5,219.5 Z M 232.5,182.5 C 232.5,181.833 232.167,181.5 231.5,181.5C 231.5,180.833 231.167,180.5 230.5,180.5C 230.5,179.5 230.5,178.5 230.5,177.5C 231.833,177.5 233.167,177.5 234.5,177.5C 234.88,179.698 234.213,181.365 232.5,182.5 Z M 230.5,181.5 C 230.833,181.5 231.167,181.5 231.5,181.5C 232.167,181.5 232.5,181.833 232.5,182.5C 231.377,183.757 230.711,183.424 230.5,181.5 Z M 209.5,193.5 C 206.664,193.202 206.164,193.869 208,195.5C 208.383,194.944 208.883,194.611 209.5,194.5C 209.833,195.833 210.167,195.833 210.5,194.5C 211.043,194.56 211.376,194.893 211.5,195.5C 207.857,197.395 205.857,196.395 205.5,192.5C 207.099,192.232 208.432,192.566 209.5,193.5 Z"/></g>
<g><path style="opacity:1" fill="#cccad1" d="M 292.5,140.5 C 298.052,140.273 302.052,142.606 304.5,147.5C 304.167,147.833 303.833,148.167 303.5,148.5C 300.468,142.975 296.135,141.475 290.5,144C 288.333,151.167 290.833,153.667 298,151.5C 298.456,152.744 297.956,153.577 296.5,154C 289.215,154.962 286.382,151.795 288,144.5C 289.397,142.93 290.897,141.596 292.5,140.5 Z"/></g>
<g><path style="opacity:1" fill="#b7456b" d="M 270.5,155.5 C 270.5,154.5 270.5,153.5 270.5,152.5C 266.513,152.716 262.68,152.049 259,150.5C 257.862,150.989 256.695,151.322 255.5,151.5C 257.945,148.79 260.278,145.956 262.5,143C 266.351,140.503 269.184,141.337 271,145.5C 271.808,149.027 271.641,152.36 270.5,155.5 Z"/></g>
<g><path style="opacity:1" fill="#9374a3" d="M 165.5,145.5 C 166.747,148.799 166.747,152.133 165.5,155.5C 164.878,157.956 163.378,159.623 161,160.5C 157.799,159.209 154.799,157.543 152,155.5C 151.161,152.86 151.661,150.527 153.5,148.5C 152.51,144.895 151.844,141.228 151.5,137.5C 156.747,139.124 161.414,141.791 165.5,145.5 Z"/></g>
<g><path style="opacity:1" fill="#8da2ba" d="M 178.5,140.5 C 179.334,145.162 179.334,149.829 178.5,154.5C 178.134,157.256 176.8,159.256 174.5,160.5C 172.932,161.473 171.265,161.64 169.5,161C 168.512,158.833 167.179,157 165.5,155.5C 166.747,152.133 166.747,148.799 165.5,145.5C 167.199,145.66 168.866,145.494 170.5,145C 172.817,142.843 175.484,141.343 178.5,140.5 Z"/></g>
<g><path style="opacity:0.208" fill="#c68da0" d="M 174.5,160.5 C 176.8,159.256 178.134,157.256 178.5,154.5C 179.334,149.829 179.334,145.162 178.5,140.5C 181.171,138.882 184.171,138.215 187.5,138.5C 185.881,142.346 184.381,146.346 183,150.5C 180.336,151.534 180.169,153.2 182.5,155.5C 180.671,159.079 178.004,160.746 174.5,160.5 Z"/></g>
<g><path style="opacity:1" fill="#f36353" d="M 370.5,157.5 C 365.23,158.122 361.564,160.789 359.5,165.5C 358.402,164.399 358.235,163.066 359,161.5C 361.814,158.04 363.98,154.207 365.5,150C 366.635,149.251 367.635,149.417 368.5,150.5C 369.946,152.618 370.613,154.951 370.5,157.5 Z"/></g>
<g><path style="opacity:1" fill="#db4d69" d="M 270.5,155.5 C 270.448,157.903 270.781,160.236 271.5,162.5C 270.883,162.611 270.383,162.944 270,163.5C 262.602,161.044 255.436,161.044 248.5,163.5C 250.317,159.199 252.65,155.199 255.5,151.5C 256.695,151.322 257.862,150.989 259,150.5C 262.68,152.049 266.513,152.716 270.5,152.5C 270.5,153.5 270.5,154.5 270.5,155.5 Z"/></g>
<g><path style="opacity:1" fill="#f17a55" d="M 370.5,157.5 C 371.228,160.079 371.728,162.746 372,165.5C 373.131,164.396 373.965,164.729 374.5,166.5C 374.058,167.739 373.391,168.739 372.5,169.5C 372.167,169.5 371.833,169.5 371.5,169.5C 373.031,168.075 372.698,167.409 370.5,167.5C 370.99,165.052 370.157,163.385 368,162.5C 365.41,164.273 362.577,165.273 359.5,165.5C 361.564,160.789 365.23,158.122 370.5,157.5 Z"/></g>
<g><path style="opacity:1" fill="#42a3b6" d="M 290.5,162.5 C 289.027,164.583 287.86,166.916 287,169.5C 286.278,172.261 286.445,174.927 287.5,177.5C 285.983,177.489 284.816,176.823 284,175.5C 282.399,169.322 281.232,162.988 280.5,156.5C 284.793,156.977 288.127,158.977 290.5,162.5 Z"/></g>
<g><path style="opacity:1" fill="#80b8aa" d="M 317.5,162.5 C 317.5,167.833 317.5,173.167 317.5,178.5C 316.5,178.5 315.5,178.5 314.5,178.5C 314.917,174.183 314.25,170.183 312.5,166.5C 313.585,164.413 315.251,163.08 317.5,162.5 Z"/></g>
<g><path style="opacity:1" fill="#f78e50" d="M 370.5,167.5 C 370.5,168.167 370.5,168.833 370.5,169.5C 369.778,169.082 369.278,168.416 369,167.5C 366.239,168.796 363.405,169.963 360.5,171C 358.248,174.664 355.915,178.164 353.5,181.5C 352.883,181.389 352.383,181.056 352,180.5C 351.712,177.47 351.545,174.636 351.5,172C 353.164,168.864 355.831,167.697 359.5,168.5C 359.5,167.5 359.5,166.5 359.5,165.5C 362.577,165.273 365.41,164.273 368,162.5C 370.157,163.385 370.99,165.052 370.5,167.5 Z"/></g>
<g><path style="opacity:1" fill="#ee5b63" d="M 271.5,162.5 C 273.017,164.462 273.684,166.795 273.5,169.5C 273.684,172.205 273.017,174.538 271.5,176.5C 264.076,171.213 256.076,170.38 247.5,174C 245.503,175.193 243.836,176.693 242.5,178.5C 243.738,173.105 245.738,168.105 248.5,163.5C 255.436,161.044 262.602,161.044 270,163.5C 270.383,162.944 270.883,162.611 271.5,162.5 Z"/></g>
<g><path style="opacity:1" fill="#51a7b1" d="M 313.5,178.5 C 313.833,178.5 314.167,178.5 314.5,178.5C 315.5,178.5 316.5,178.5 317.5,178.5C 317.5,173.167 317.5,167.833 317.5,162.5C 320.1,159.54 323.433,158.206 327.5,158.5C 325.361,164.383 323.528,170.383 322,176.5C 319.489,179.299 316.655,179.965 313.5,178.5 Z"/></g>
<g><path style="opacity:1" fill="#7cbcb2" d="M 290.5,162.5 C 292.833,164.167 294.833,166.167 296.5,168.5C 294.557,170.971 293.557,173.971 293.5,177.5C 291.5,177.5 289.5,177.5 287.5,177.5C 286.445,174.927 286.278,172.261 287,169.5C 287.86,166.916 289.027,164.583 290.5,162.5 Z"/></g>
<g><path style="opacity:1" fill="#b2c19b" d="M 312.5,166.5 C 314.25,170.183 314.917,174.183 314.5,178.5C 314.167,178.5 313.833,178.5 313.5,178.5C 312.167,178.5 310.833,178.5 309.5,178.5C 311.546,175.216 311.879,171.883 310.5,168.5C 310.833,167.5 311.5,166.833 312.5,166.5 Z"/></g>
<g><path style="opacity:0.071" fill="#a781b4" d="M 137.5,167.5 C 140.247,168.966 143.247,169.799 146.5,170C 145.323,174.195 142.656,175.861 138.5,175C 137.565,172.619 137.232,170.119 137.5,167.5 Z"/></g>
<g><path style="opacity:1" fill="#e4c67a" d="M 310.5,168.5 C 311.879,171.883 311.546,175.216 309.5,178.5C 306.833,178.833 306.833,179.167 309.5,179.5C 309.306,183.248 307.639,185.915 304.5,187.5C 301.142,179.736 303.142,173.403 310.5,168.5 Z"/></g>
<g><path style="opacity:1" fill="#a3c0b5" d="M 176.5,176.5 C 179.139,177.706 179.972,179.706 179,182.5C 176.667,184.167 174.667,186.167 173,188.5C 172.601,188.272 172.435,187.938 172.5,187.5C 172.804,186.85 173.137,186.183 173.5,185.5C 172.071,183.669 171.571,181.669 172,179.5C 172.414,179.957 172.914,180.291 173.5,180.5C 174.15,178.816 175.15,177.483 176.5,176.5 Z"/></g>
<g><path style="opacity:1" fill="#e9cd7c" d="M 297.5,170.5 C 301.826,175.441 302.493,180.774 299.5,186.5C 302.493,180.774 301.826,175.441 297.5,170.5 Z"/></g>
<g><path style="opacity:1" fill="#f27360" d="M 271.5,176.5 C 272.5,178.5 273.5,180.5 274.5,182.5C 273.542,182.047 272.708,181.381 272,180.5C 270.426,181.848 268.593,182.514 266.5,182.5C 256.494,180.193 247.827,181.86 240.5,187.5C 240.42,184.219 241.087,181.219 242.5,178.5C 243.836,176.693 245.503,175.193 247.5,174C 256.076,170.38 264.076,171.213 271.5,176.5 Z"/></g>
<g><path style="opacity:1" fill="#fb9657" d="M 370.5,177.5 C 368.626,182.686 365.96,187.353 362.5,191.5C 361.662,191.842 361.328,192.508 361.5,193.5C 360.326,192.486 359.66,191.153 359.5,189.5C 362.235,187.382 363.235,184.716 362.5,181.5C 363.888,177.906 366.555,176.573 370.5,177.5 Z"/></g>
<g><path style="opacity:1" fill="#75b4c2" d="M 176.5,176.5 C 175.15,177.483 174.15,178.816 173.5,180.5C 172.914,180.291 172.414,179.957 172,179.5C 171.571,181.669 172.071,183.669 173.5,185.5C 173.137,186.183 172.804,186.85 172.5,187.5C 171.883,187.611 171.383,187.944 171,188.5C 167.922,186.045 164.756,183.711 161.5,181.5C 161.709,180.914 162.043,180.414 162.5,180C 164.833,179.667 167.167,179.333 169.5,179C 168.5,178.667 167.5,178.333 166.5,178C 169.79,177.94 170.79,176.607 169.5,174C 169.954,171.964 170.787,170.13 172,168.5C 174.202,170.845 175.702,173.511 176.5,176.5 Z"/></g>
<g><path style="opacity:1" fill="#f3835f" d="M 274.5,182.5 C 276.569,186.044 276.902,189.71 275.5,193.5C 275.586,192.504 275.252,191.671 274.5,191C 265.907,185.731 256.907,184.731 247.5,188C 244.671,189.356 242.004,190.856 239.5,192.5C 239.216,190.585 239.549,188.919 240.5,187.5C 247.827,181.86 256.494,180.193 266.5,182.5C 268.593,182.514 270.426,181.848 272,180.5C 272.708,181.381 273.542,182.047 274.5,182.5 Z"/></g>
<g><path style="opacity:1" fill="#c0c48d" d="M 296.5,168.5 C 296.833,169.167 297.167,169.833 297.5,170.5C 296.275,171.152 295.608,172.319 295.5,174C 295.675,175.658 296.342,176.991 297.5,178C 295.121,180.227 294.954,182.727 297,185.5C 297.671,186.252 298.504,186.586 299.5,186.5C 299.771,188.38 299.104,189.713 297.5,190.5C 295.358,187.2 294.025,183.533 293.5,179.5C 294.506,178.604 294.506,177.938 293.5,177.5C 293.557,173.971 294.557,170.971 296.5,168.5 Z"/></g>
<g><path style="opacity:1" fill="#f9af5f" d="M 370.5,169.5 C 370.833,169.5 371.167,169.5 371.5,169.5C 371.833,169.5 372.167,169.5 372.5,169.5C 372.249,171.17 371.582,172.67 370.5,174C 370.728,174.399 371.062,174.565 371.5,174.5C 371.443,175.609 371.11,176.609 370.5,177.5C 366.555,176.573 363.888,177.906 362.5,181.5C 363.235,184.716 362.235,187.382 359.5,189.5C 358.957,189.44 358.624,189.107 358.5,188.5C 359.167,186.833 359.833,185.167 360.5,183.5C 358.031,182.832 355.698,182.165 353.5,181.5C 355.915,178.164 358.248,174.664 360.5,171C 363.405,169.963 366.239,168.796 369,167.5C 369.278,168.416 369.778,169.082 370.5,169.5 Z"/></g>
<g><path style="opacity:1" fill="#5f307d" d="M 378.5,177.5 C 385.137,177.984 390.47,180.817 394.5,186C 389.145,187.179 383.812,188.679 378.5,190.5C 376.829,190.332 375.496,189.665 374.5,188.5C 377.21,185.4 378.543,181.733 378.5,177.5 Z"/></g>
<g><path style="opacity:1" fill="#7db9ad" d="M 293.5,179.5 C 294.025,183.533 295.358,187.2 297.5,190.5C 296.928,193.244 295.262,194.077 292.5,193C 289.8,191.81 287.633,189.977 286,187.5C 285.849,182.481 288.349,179.814 293.5,179.5 Z"/></g>
<g><path style="opacity:1" fill="#f4765f" d="M 370.5,177.5 C 370.177,180.489 370.177,183.655 370.5,187C 368.547,189.712 365.88,191.212 362.5,191.5C 365.96,187.353 368.626,182.686 370.5,177.5 Z"/></g>
<g><path style="opacity:1" fill="#f18f5f" d="M 275.5,193.5 C 275.672,194.492 275.338,195.158 274.5,195.5C 262.449,187.89 250.949,188.556 240,197.5C 239.502,200.482 239.335,203.482 239.5,206.5C 239.5,208.167 239.5,209.833 239.5,211.5C 238.193,205.266 238.193,198.932 239.5,192.5C 242.004,190.856 244.671,189.356 247.5,188C 256.907,184.731 265.907,185.731 274.5,191C 275.252,191.671 275.586,192.504 275.5,193.5 Z"/></g>
<g><path style="opacity:1" fill="#f6b649" d="M 144.5,183.5 C 146.532,184.561 147.866,186.228 148.5,188.5C 156.279,190.102 156.279,192.102 148.5,194.5C 146.803,194.101 145.137,193.601 143.5,193C 142.588,189.776 142.921,186.609 144.5,183.5 Z"/></g>
<g><path style="opacity:1" fill="#5db3b3" d="M 313.5,181.5 C 318.118,183.212 319.118,186.045 316.5,190C 315.1,191.438 313.433,192.271 311.5,192.5C 313.324,189.154 313.99,185.487 313.5,181.5 Z"/></g>
<g><path style="opacity:1" fill="#f6a060" d="M 274.5,195.5 C 272.833,197.833 270.833,199.833 268.5,201.5C 261.451,196.383 254.117,196.216 246.5,201C 244.004,202.666 241.671,204.5 239.5,206.5C 239.335,203.482 239.502,200.482 240,197.5C 250.949,188.556 262.449,187.89 274.5,195.5 Z"/></g>
<g><path style="opacity:1" fill="#d85b71" d="M 380.5,175.5 C 379.5,175.5 378.5,175.5 377.5,175.5C 376.508,175.328 375.842,175.662 375.5,176.5C 375.329,177.879 375.162,179.546 375,181.5C 373.409,184.352 372.076,187.352 371,190.5C 368.359,191.732 366.193,193.398 364.5,195.5C 363.29,195.068 362.29,194.401 361.5,193.5C 361.328,192.508 361.662,191.842 362.5,191.5C 365.88,191.212 368.547,189.712 370.5,187C 370.177,183.655 370.177,180.489 370.5,177.5C 371.11,176.609 371.443,175.609 371.5,174.5C 373.884,174.557 376.218,174.223 378.5,173.5C 379.713,173.747 380.38,174.414 380.5,175.5 Z"/></g>
<g><path style="opacity:1" fill="#94bfa0" d="M 309.5,179.5 C 310.995,179.989 312.329,180.655 313.5,181.5C 313.99,185.487 313.324,189.154 311.5,192.5C 307.105,194.857 304.771,193.19 304.5,187.5C 307.639,185.915 309.306,183.248 309.5,179.5 Z"/></g>
<g><path style="opacity:0.004" fill="#140d25" d="M 209.5,193.5 C 209.5,193.833 209.5,194.167 209.5,194.5C 208.883,194.611 208.383,194.944 208,195.5C 206.164,193.869 206.664,193.202 209.5,193.5 Z"/></g>
<g><path style="opacity:1" fill="#9b417c" d="M 377.5,175.5 C 378.5,175.5 379.5,175.5 380.5,175.5C 379.833,176.167 379.167,176.833 378.5,177.5C 378.543,181.733 377.21,185.4 374.5,188.5C 373.869,190.903 372.869,193.236 371.5,195.5C 369.273,196.053 366.939,196.053 364.5,195.5C 366.193,193.398 368.359,191.732 371,190.5C 372.076,187.352 373.409,184.352 375,181.5C 375.162,179.546 375.329,177.879 375.5,176.5C 376.492,176.672 377.158,176.338 377.5,175.5 Z"/></g>
<g><path style="opacity:1" fill="#bd84b2" d="M 139.5,194.5 C 140.5,194.5 141.5,194.5 142.5,194.5C 143.836,201.158 141.17,203.825 134.5,202.5C 134.682,200.409 134.348,198.409 133.5,196.5C 134.533,195.548 135.7,195.548 137,196.5C 138.301,196.361 139.134,195.695 139.5,194.5 Z"/></g>
<g><path style="opacity:1" fill="#372470" d="M 164.5,198.5 C 165.952,199.302 167.618,199.802 169.5,200C 167.699,200.317 167.366,200.984 168.5,202C 166.936,206.086 165.603,210.252 164.5,214.5C 157.527,214.022 153.527,210.355 152.5,203.5C 155.625,200.036 159.625,198.369 164.5,198.5 Z"/></g>
<g><path style="opacity:1" fill="#7c7787" d="M 230.5,187.5 C 231.535,195.576 232.869,203.743 234.5,212C 234.167,212.5 233.833,213 233.5,213.5C 231.016,211.517 228.683,209.35 226.5,207C 228.745,207.195 230.578,208.362 232,210.5C 232.167,209.833 232.333,209.167 232.5,208.5C 231.007,201.58 230.34,194.58 230.5,187.5 Z"/></g>
<g><path style="opacity:1" fill="#f9b362" d="M 268.5,201.5 C 266.999,202.752 265.332,203.752 263.5,204.5C 263.5,203.5 263.5,202.5 263.5,201.5C 253.445,200.863 245.445,204.53 239.5,212.5C 239.5,212.167 239.5,211.833 239.5,211.5C 239.5,209.833 239.5,208.167 239.5,206.5C 241.671,204.5 244.004,202.666 246.5,201C 254.117,196.216 261.451,196.383 268.5,201.5 Z"/></g>
<g><path style="opacity:1" fill="#7b3376" d="M 178.5,198.5 C 183.82,199.26 189.153,199.927 194.5,200.5C 195.167,200.5 195.5,200.833 195.5,201.5C 192.833,201.5 190.167,201.5 187.5,201.5C 185.369,210.74 184.036,219.907 183.5,229C 185.155,230.444 185.822,232.278 185.5,234.5C 183.214,231.567 181.214,228.567 179.5,225.5C 179.196,224.85 178.863,224.183 178.5,223.5C 179.112,217.577 180.112,211.743 181.5,206C 179.208,204.803 178.875,203.137 180.5,201C 179.944,199.989 179.278,199.156 178.5,198.5 Z"/></g>
<g><path style="opacity:1" fill="#f8bf4f" d="M 359.5,199.5 C 361.271,200.866 362.938,202.366 364.5,204C 366.473,204.495 368.473,204.662 370.5,204.5C 369.816,210.023 366.816,212.856 361.5,213C 359.487,212.32 358.154,210.987 357.5,209C 357.554,205.926 358.22,202.76 359.5,199.5 Z"/></g>
<g><path style="opacity:1" fill="#ac3e77" d="M 195.5,202.5 C 196.791,202.263 197.791,202.596 198.5,203.5C 196.732,207.044 195.898,211.044 196,215.5C 195.353,223.189 195.52,230.856 196.5,238.5C 194.549,238.773 193.049,238.107 192,236.5C 191.136,227.249 191.636,218.083 193.5,209C 191.861,206.085 192.528,203.918 195.5,202.5 Z"/></g>
<g><path style="opacity:1" fill="#f5a45a" d="M 275.5,212.5 C 275.389,213.117 275.056,213.617 274.5,214C 277.176,224.466 275.51,234.3 269.5,243.5C 267.955,244.452 266.288,244.785 264.5,244.5C 261.296,243.617 258.629,241.95 256.5,239.5C 262.201,238.974 266.034,235.974 268,230.5C 270.071,224.434 269.571,218.601 266.5,213C 263.306,211.06 260.306,211.227 257.5,213.5C 256.167,213.5 254.833,213.5 253.5,213.5C 260.696,209.956 268.029,209.622 275.5,212.5 Z"/></g>
<g><path style="opacity:1" fill="#582b76" d="M 164.5,198.5 C 169.167,198.5 173.833,198.5 178.5,198.5C 179.278,199.156 179.944,199.989 180.5,201C 178.875,203.137 179.208,204.803 181.5,206C 180.112,211.743 179.112,217.577 178.5,223.5C 178.863,224.183 179.196,224.85 179.5,225.5C 176.072,225.453 173.072,224.287 170.5,222C 168.666,219.337 166.666,216.837 164.5,214.5C 165.603,210.252 166.936,206.086 168.5,202C 167.366,200.984 167.699,200.317 169.5,200C 167.618,199.802 165.952,199.302 164.5,198.5 Z"/></g>
<g><path style="opacity:1" fill="#ee5667" d="M 207.5,206.5 C 211.297,206.872 214.63,208.206 217.5,210.5C 216.5,210.5 215.5,210.5 214.5,210.5C 213.76,217.826 213.093,225.159 212.5,232.5C 210.287,233.773 207.954,234.773 205.5,235.5C 203.778,231.573 202.778,227.239 202.5,222.5C 203.425,216.816 205.091,211.482 207.5,206.5 Z"/></g>
<g><path style="opacity:1" fill="#903877" d="M 195.5,201.5 C 195.5,201.833 195.5,202.167 195.5,202.5C 192.528,203.918 191.861,206.085 193.5,209C 191.636,218.083 191.136,227.249 192,236.5C 193.049,238.107 194.549,238.773 196.5,238.5C 196.833,238.5 197.167,238.5 197.5,238.5C 192.486,240.532 188.486,239.199 185.5,234.5C 185.822,232.278 185.155,230.444 183.5,229C 184.036,219.907 185.369,210.74 187.5,201.5C 190.167,201.5 192.833,201.5 195.5,201.5 Z"/></g>
<g><path style="opacity:1" fill="#3e2c83" d="M 384.5,215.5 C 384.714,217.144 384.38,218.644 383.5,220C 381.19,220.497 378.857,220.663 376.5,220.5C 376.918,219.778 377.584,219.278 378.5,219C 377.73,215.181 378.063,211.347 379.5,207.5C 382.193,209.559 383.86,212.226 384.5,215.5 Z"/></g>
<g><path style="opacity:1" fill="#f08a61" d="M 220.5,212.5 C 222.674,212.75 224.341,213.75 225.5,215.5C 224.704,218.556 223.704,221.556 222.5,224.5C 222.543,225.416 222.876,226.083 223.5,226.5C 221.574,227.486 219.574,228.486 217.5,229.5C 217.747,223.683 218.747,218.017 220.5,212.5 Z"/></g>
<g><path style="opacity:1" fill="#f09358" d="M 275.5,212.5 C 279.09,212.544 281.59,214.211 283,217.5C 282.275,223.018 281.608,228.684 281,234.5C 279.544,236.99 277.377,238.657 274.5,239.5C 272.87,244.983 269.537,246.649 264.5,244.5C 266.288,244.785 267.955,244.452 269.5,243.5C 275.51,234.3 277.176,224.466 274.5,214C 275.056,213.617 275.389,213.117 275.5,212.5 Z"/></g>
<g><path style="opacity:1" fill="#f26d62" d="M 217.5,210.5 C 218.71,210.932 219.71,211.599 220.5,212.5C 218.747,218.017 217.747,223.683 217.5,229.5C 216.035,230.737 214.368,231.737 212.5,232.5C 213.093,225.159 213.76,217.826 214.5,210.5C 215.5,210.5 216.5,210.5 217.5,210.5 Z"/></g>
<g><path style="opacity:1" fill="#f5a460" d="M 225.5,215.5 C 228.37,216.433 230.704,218.1 232.5,220.5C 231.143,221.59 230.143,222.924 229.5,224.5C 227.5,225.167 225.5,225.833 223.5,226.5C 222.876,226.083 222.543,225.416 222.5,224.5C 223.704,221.556 224.704,218.556 225.5,215.5 Z"/></g>
<g><path style="opacity:1" fill="#fac85f" d="M 263.5,204.5 C 257.779,207.384 252.445,210.884 247.5,215C 249.506,214.85 251.506,214.35 253.5,213.5C 254.833,213.5 256.167,213.5 257.5,213.5C 258.822,213.33 259.989,213.663 261,214.5C 262.312,216.955 263.478,219.455 264.5,222C 263.129,225.94 261.463,229.773 259.5,233.5C 258.086,234.624 256.586,235.624 255,236.5C 254.296,234.273 253.129,233.94 251.5,235.5C 247.485,231.644 243.985,227.311 241,222.5C 240.174,219.207 239.674,215.874 239.5,212.5C 245.445,204.53 253.445,200.863 263.5,201.5C 263.5,202.5 263.5,203.5 263.5,204.5 Z"/></g>
<g><path style="opacity:1" fill="#f9b65b" d="M 256.5,239.5 C 254.251,238.92 252.585,237.587 251.5,235.5C 253.129,233.94 254.296,234.273 255,236.5C 256.586,235.624 258.086,234.624 259.5,233.5C 261.463,229.773 263.129,225.94 264.5,222C 263.478,219.455 262.312,216.955 261,214.5C 259.989,213.663 258.822,213.33 257.5,213.5C 260.306,211.227 263.306,211.06 266.5,213C 269.571,218.601 270.071,224.434 268,230.5C 266.034,235.974 262.201,238.974 256.5,239.5 Z"/></g>
<g><path style="opacity:1" fill="#684391" d="M 391.5,218.5 C 387.15,219.517 384.483,222.184 383.5,226.5C 378.333,230.066 375.333,228.732 374.5,222.5C 374.747,221.287 375.414,220.62 376.5,220.5C 378.857,220.663 381.19,220.497 383.5,220C 384.38,218.644 384.714,217.144 384.5,215.5C 385.648,214.105 386.648,214.272 387.5,216C 386.483,217.049 386.316,218.216 387,219.5C 388.347,217.534 389.847,217.201 391.5,218.5 Z"/></g>
<g><path style="opacity:1" fill="#ca4571" d="M 198.5,203.5 C 201.854,203.747 204.854,204.747 207.5,206.5C 205.091,211.482 203.425,216.816 202.5,222.5C 202.778,227.239 203.778,231.573 205.5,235.5C 203.208,237.267 200.542,238.267 197.5,238.5C 197.167,238.5 196.833,238.5 196.5,238.5C 195.52,230.856 195.353,223.189 196,215.5C 195.898,211.044 196.732,207.044 198.5,203.5 Z"/></g>
<g><path style="opacity:1" fill="#f8bb60" d="M 232.5,220.5 C 234.394,221.048 236.06,222.048 237.5,223.5C 242.345,232.213 244.345,241.546 243.5,251.5C 237.655,248.813 232.821,244.813 229,239.5C 227.912,235.215 227.079,231.215 226.5,227.5C 227.694,226.728 228.694,225.728 229.5,224.5C 230.143,222.924 231.143,221.59 232.5,220.5 Z"/></g>
<g><path style="opacity:1" fill="#63a7b7" d="M 354.5,222.5 C 352.67,227.008 351.337,231.675 350.5,236.5C 342.919,234.322 341.586,229.989 346.5,223.5C 346.32,222.446 345.987,221.446 345.5,220.5C 346.23,217.891 346.73,215.224 347,212.5C 348.587,211.273 349.921,211.606 351,213.5C 352.741,216.309 353.908,219.309 354.5,222.5 Z"/></g>
<g><path style="opacity:1" fill="#cc4c86" d="M 391.5,218.5 C 394.714,219.282 398.048,220.115 401.5,221C 402.566,222.159 402.233,222.992 400.5,223.5C 398.383,221.345 395.716,220.345 392.5,220.5C 392.628,222.655 392.128,224.655 391,226.5C 390,225.167 389,225.167 388,226.5C 387.578,228.355 387.078,230.189 386.5,232C 386.57,232.765 386.903,233.265 387.5,233.5C 386.207,234.645 385.041,234.311 384,232.5C 382.204,230.598 382.037,228.598 383.5,226.5C 384.483,222.184 387.15,219.517 391.5,218.5 Z"/></g>
<g><path style="opacity:1" fill="#e75381" d="M 400.5,223.5 C 398.153,226.337 395.153,228.17 391.5,229C 392.232,231.95 390.899,233.45 387.5,233.5C 386.903,233.265 386.57,232.765 386.5,232C 387.078,230.189 387.578,228.355 388,226.5C 389,225.167 390,225.167 391,226.5C 392.128,224.655 392.628,222.655 392.5,220.5C 395.716,220.345 398.383,221.345 400.5,223.5 Z"/></g>
<g><path style="opacity:1" fill="#f4904d" d="M 155.5,218.5 C 156.167,218.5 156.5,218.833 156.5,219.5C 156.954,223.149 157.954,226.649 159.5,230C 159.355,230.772 159.022,231.439 158.5,232C 163.682,233.196 164.849,236.03 162,240.5C 161.292,241.381 160.458,242.047 159.5,242.5C 159.5,240.167 159.5,237.833 159.5,235.5C 157.876,235.64 156.71,234.973 156,233.5C 154.943,235.219 154.11,237.053 153.5,239C 155.426,239.422 156.426,240.589 156.5,242.5C 156.167,242.5 155.833,242.5 155.5,242.5C 154.849,243.091 154.182,243.757 153.5,244.5C 151.306,242.685 150.972,240.518 152.5,238C 151.429,237.148 150.429,236.315 149.5,235.5C 149.5,234.833 149.5,234.167 149.5,233.5C 149.5,232.833 149.167,232.5 148.5,232.5C 148.461,231.417 148.127,230.417 147.5,229.5C 148.274,228.289 149.107,228.289 150,229.5C 150.426,225.01 152.259,221.344 155.5,218.5 Z"/></g>
<g><path style="opacity:0.851" fill="#d0bf9c" d="M 354.5,222.5 C 355.315,223.429 356.148,224.429 357,225.5C 357.671,224.748 358.504,224.414 359.5,224.5C 355.944,227.281 354.277,230.948 354.5,235.5C 353.041,235.433 351.708,235.766 350.5,236.5C 351.337,231.675 352.67,227.008 354.5,222.5 Z"/></g>
<g><path style="opacity:1" fill="#f7a75e" d="M 226.5,227.5 C 227.079,231.215 227.912,235.215 229,239.5C 232.821,244.813 237.655,248.813 243.5,251.5C 243.784,253.415 243.451,255.081 242.5,256.5C 242.5,255.5 242.5,254.5 242.5,253.5C 235.941,252.461 230.774,249.128 227,243.5C 225.329,239.107 223.829,234.774 222.5,230.5C 223.436,229.026 224.77,228.026 226.5,227.5 Z"/></g>
<g><path style="opacity:0.337" fill="#b76d70" d="M 148.5,232.5 C 149.167,232.5 149.5,232.833 149.5,233.5C 149.5,234.167 149.5,234.833 149.5,235.5C 149.167,235.5 148.833,235.5 148.5,235.5C 146.901,235.768 145.568,235.434 144.5,234.5C 145.557,233.794 145.224,233.461 143.5,233.5C 142.147,232.133 142.481,231.133 144.5,230.5C 145.622,231.63 146.956,232.297 148.5,232.5 Z"/></g>
<g><path style="opacity:1" fill="#fac358" d="M 354.5,235.5 C 354.277,230.948 355.944,227.281 359.5,224.5C 362.574,221.75 366.074,220.75 370,221.5C 370.667,222.5 370.667,223.5 370,224.5C 366.774,229.172 363.941,234.005 361.5,239C 357.795,240.313 355.462,239.146 354.5,235.5 Z"/></g>
<g><path style="opacity:1" fill="#6d338f" d="M 140.5,234.5 C 141.316,236.786 142.65,238.786 144.5,240.5C 143.757,241.182 143.091,241.849 142.5,242.5C 138.887,241.36 135.553,239.693 132.5,237.5C 134.536,235.016 137.202,234.016 140.5,234.5 Z"/></g>
<g><path style="opacity:1" fill="#fdb658" d="M 159.5,242.5 C 158.5,242.5 157.5,242.5 156.5,242.5C 156.426,240.589 155.426,239.422 153.5,239C 154.11,237.053 154.943,235.219 156,233.5C 156.71,234.973 157.876,235.64 159.5,235.5C 159.5,237.833 159.5,240.167 159.5,242.5 Z"/></g>
<g><path style="opacity:0.412" fill="#ea9364" d="M 372.5,230.5 C 374.328,231.794 376.328,232.794 378.5,233.5C 378.014,235.807 378.014,237.973 378.5,240C 377.407,241.365 376.074,241.699 374.5,241C 369.537,238.017 368.87,234.517 372.5,230.5 Z"/></g>
<g><path style="opacity:1" fill="#f37366" d="M 148.5,235.5 C 148.833,235.5 149.167,235.5 149.5,235.5C 150.429,236.315 151.429,237.148 152.5,238C 150.972,240.518 151.306,242.685 153.5,244.5C 154.182,243.757 154.849,243.091 155.5,242.5C 155.727,244.933 154.727,246.599 152.5,247.5C 150.978,244.971 149.311,242.471 147.5,240C 148.308,239.692 148.975,239.192 149.5,238.5C 148.873,237.583 148.539,236.583 148.5,235.5 Z"/></g>
<g><path style="opacity:1" fill="#aa66bb" d="M 389.5,238.5 C 391.459,241.309 394.126,243.476 397.5,245C 388.781,249.503 386.114,247.336 389.5,238.5 Z"/></g>
<g><path style="opacity:1" fill="#c54b7f" d="M 143.5,233.5 C 143.5,234.167 143.833,234.5 144.5,234.5C 145.568,235.434 146.901,235.768 148.5,235.5C 148.539,236.583 148.873,237.583 149.5,238.5C 148.975,239.192 148.308,239.692 147.5,240C 149.311,242.471 150.978,244.971 152.5,247.5C 150.251,248.13 147.918,247.797 145.5,246.5C 145.185,244.517 144.185,243.184 142.5,242.5C 143.091,241.849 143.757,241.182 144.5,240.5C 142.65,238.786 141.316,236.786 140.5,234.5C 141.209,233.596 142.209,233.263 143.5,233.5 Z"/></g>
<g><path style="opacity:1" fill="#f0725b" d="M 213.5,239.5 C 214.016,242.899 214.85,246.232 216,249.5C 218.116,252.686 219.95,256.02 221.5,259.5C 216.777,260.447 212.944,259.114 210,255.5C 208.622,249.489 209.789,244.155 213.5,239.5 Z"/></g>
<g><path style="opacity:1" fill="#f5985c" d="M 222.5,230.5 C 223.829,234.774 225.329,239.107 227,243.5C 230.774,249.128 235.941,252.461 242.5,253.5C 242.5,254.5 242.5,255.5 242.5,256.5C 242.912,258.973 241.912,260.306 239.5,260.5C 237.473,260.662 235.473,260.495 233.5,260C 224.405,253.423 219.405,244.59 218.5,233.5C 219.436,232.026 220.77,231.026 222.5,230.5 Z"/></g>
<g><path style="opacity:1" fill="#f0825d" d="M 218.5,233.5 C 219.405,244.59 224.405,253.423 233.5,260C 235.473,260.495 237.473,260.662 239.5,260.5C 235.855,261.442 232.022,262.108 228,262.5C 225.198,262.68 223.031,261.68 221.5,259.5C 219.95,256.02 218.116,252.686 216,249.5C 214.85,246.232 214.016,242.899 213.5,239.5C 215.177,237.46 216.844,235.46 218.5,233.5 Z"/></g>
<g><path style="opacity:1" fill="#f58846" d="M 356.5,255.5 C 356.565,255.938 356.399,256.272 356,256.5C 355.667,255.833 355.333,255.167 355,254.5C 349.747,259.116 346.58,264.783 345.5,271.5C 344.235,270.486 343.569,268.986 343.5,267C 343.104,263.233 344.77,261.233 348.5,261C 347.57,259.806 346.903,258.473 346.5,257C 347.569,253.557 348.402,250.057 349,246.5C 351.091,245.5 352.757,246.167 354,248.5C 355.411,250.65 356.245,252.984 356.5,255.5 Z"/></g>
<g><path style="opacity:0.027" fill="#d59489" d="M 366.5,262.5 C 365.209,262.263 364.209,262.596 363.5,263.5C 361.847,263.66 360.514,264.326 359.5,265.5C 359.167,265.5 358.833,265.5 358.5,265.5C 358.167,263.5 357.833,261.5 357.5,259.5C 358.833,259.167 358.833,258.833 357.5,258.5C 357.5,257.833 357.5,257.167 357.5,256.5C 361.58,255.488 362.247,256.654 359.5,260C 360.025,260.692 360.692,261.192 361.5,261.5C 362.85,260.05 364.516,259.383 366.5,259.5C 366.5,260.5 366.5,261.5 366.5,262.5 Z"/></g>
<g><path style="opacity:1" fill="#ef696c" d="M 363.5,263.5 C 365.344,264.204 365.844,265.537 365,267.5C 363.951,269.107 362.451,269.773 360.5,269.5C 360.167,268.167 359.833,266.833 359.5,265.5C 360.514,264.326 361.847,263.66 363.5,263.5 Z"/></g>
<g><path style="opacity:1" fill="#fab35d" d="M 356.5,255.5 C 357.167,255.5 357.5,255.833 357.5,256.5C 357.5,257.167 357.5,257.833 357.5,258.5C 357.5,258.833 357.5,259.167 357.5,259.5C 357.833,261.5 358.167,263.5 358.5,265.5C 356.243,266.562 355.077,268.228 355,270.5C 357.119,267.523 358.286,267.856 358.5,271.5C 358.304,274.346 356.97,276.346 354.5,277.5C 353.698,276.048 353.198,274.382 353,272.5C 349.827,275.418 347.327,275.085 345.5,271.5C 346.58,264.783 349.747,259.116 355,254.5C 355.333,255.167 355.667,255.833 356,256.5C 356.399,256.272 356.565,255.938 356.5,255.5 Z"/></g>
<g><path style="opacity:1" fill="#73338e" d="M 368.5,262.5 C 371.187,262.336 373.854,262.503 376.5,263C 377.91,263.368 378.91,264.201 379.5,265.5C 374.779,268.19 370.112,270.857 365.5,273.5C 364.447,271.128 365.114,269.128 367.5,267.5C 368.452,265.955 368.785,264.288 368.5,262.5 Z"/></g>
<g><path style="opacity:1" fill="#fa925a" d="M 358.5,265.5 C 358.833,265.5 359.167,265.5 359.5,265.5C 359.833,266.833 360.167,268.167 360.5,269.5C 360.5,269.833 360.5,270.167 360.5,270.5C 360.014,273.711 359.014,276.711 357.5,279.5C 355.821,279.715 354.821,279.048 354.5,277.5C 356.97,276.346 358.304,274.346 358.5,271.5C 358.286,267.856 357.119,267.523 355,270.5C 355.077,268.228 356.243,266.562 358.5,265.5 Z"/></g>
<g><path style="opacity:0.278" fill="#c35b80" d="M 363.5,263.5 C 364.209,262.596 365.209,262.263 366.5,262.5C 367.167,262.5 367.833,262.5 368.5,262.5C 368.785,264.288 368.452,265.955 367.5,267.5C 365.114,269.128 364.447,271.128 365.5,273.5C 365.167,273.5 364.833,273.5 364.5,273.5C 363.167,272.5 361.833,271.5 360.5,270.5C 360.5,270.167 360.5,269.833 360.5,269.5C 362.451,269.773 363.951,269.107 365,267.5C 365.844,265.537 365.344,264.204 363.5,263.5 Z"/></g>
<g><path style="opacity:0.176" fill="#de586d" d="M 360.5,270.5 C 361.833,271.5 363.167,272.5 364.5,273.5C 365.598,278.091 363.598,280.424 358.5,280.5C 357.893,280.376 357.56,280.043 357.5,279.5C 359.014,276.711 360.014,273.711 360.5,270.5 Z"/></g>
</svg>
